P2
# Created by IrfanView
123 95
255
0 0 0 0 0 0 0 0 0 0 0 0 0 0 0 0 0 
0 0 0 0 0 0 0 0 0 0 0 0 0 0 0 0 
0 0 0 0 0 0 0 0 0 0 0 0 0 0 0 0 
0 0 0 0 0 0 0 0 0 0 0 0 0 0 0 0 
0 0 0 0 0 0 0 0 0 0 0 0 0 0 0 0 
0 0 0 0 0 0 0 0 0 0 0 0 0 0 0 0 
0 0 0 0 0 0 0 0 0 0 0 0 0 0 0 0 
0 0 0 0 0 0 0 0 0 0 0 0 0 0 0 0 0 0 0 0 0 0 0 0 0 0 0 
0 0 0 0 0 0 0 0 0 0 0 0 0 0 0 0 
0 0 0 0 0 0 0 0 0 0 0 0 0 0 0 0 
0 0 0 0 0 0 0 0 0 0 0 0 0 0 0 0 
0 0 0 0 0 0 0 0 0 0 0 0 0 0 0 0 
0 0 0 0 0 0 0 0 0 0 0 0 0 0 0 0 
0 0 0 0 0 0 0 0 0 0 0 0 0 0 0 0 
0 0 0 0 0 0 0 0 0 0 0 0 0 0 0 0 0 0 0 0 0 0 0 0 0 0 0 
0 0 0 0 0 0 0 0 0 0 0 0 0 0 0 0 
0 0 0 0 0 0 0 0 0 0 0 0 0 0 0 0 
0 0 0 0 0 0 0 0 0 0 0 0 0 0 0 0 
0 0 0 0 0 0 0 0 0 0 0 0 0 0 0 0 
0 0 0 0 0 0 0 0 0 0 0 0 0 0 0 0 
0 0 0 0 0 0 0 0 0 0 0 0 0 0 0 0 
0 0 0 0 0 0 0 0 0 0 0 0 0 0 0 0 0 0 0 0 0 0 0 0 0 0 0 
0 0 0 0 0 0 0 0 0 0 0 0 0 0 0 0 
0 0 0 0 0 0 0 0 0 0 0 0 0 0 0 0 
0 0 0 0 0 0 0 0 0 0 0 0 0 0 0 0 
0 0 0 0 0 0 0 0 0 0 0 0 0 0 0 0 
0 0 0 0 0 0 0 0 0 0 0 0 48 128 128 128 
112 32 0 0 0 0 0 0 0 0 0 0 0 0 0 0 
0 0 0 0 0 0 0 0 0 0 0 0 0 0 0 0 0 0 0 0 0 0 0 0 0 0 0 
0 0 0 0 0 0 0 0 0 0 0 0 0 0 0 0 
0 0 0 0 0 0 0 0 0 0 0 0 0 0 0 0 
0 0 0 0 0 0 0 0 0 0 0 0 0 0 0 0 
0 0 0 0 0 0 0 0 0 0 0 0 0 0 0 0 
0 0 0 0 0 0 0 0 0 0 128 207 255 255 255 255 
255 255 191 64 0 0 0 0 0 0 0 0 0 0 0 0 
0 0 0 0 0 0 0 0 0 0 0 0 0 0 0 0 0 0 0 0 0 0 0 0 0 0 0 
0 0 0 0 0 0 0 0 0 0 0 0 0 0 0 0 
0 0 0 0 0 0 0 0 0 0 0 0 0 0 0 0 
0 0 0 0 0 0 0 0 0 0 0 0 0 0 0 0 
0 0 0 0 0 0 0 0 0 0 0 0 0 0 0 0 
0 0 0 0 0 0 0 0 32 207 255 255 255 255 255 255 
255 255 255 255 160 16 0 0 0 0 0 0 0 0 0 0 
0 0 0 0 0 0 0 0 0 0 0 0 0 0 0 0 0 0 0 0 0 0 0 0 0 0 0 
0 0 0 0 0 0 0 0 0 0 0 0 0 0 0 0 
0 0 0 0 0 0 0 0 0 0 0 0 0 0 0 0 
0 0 0 0 0 0 0 0 48 64 48 0 0 0 0 0 
0 0 0 0 0 0 0 0 0 0 0 0 0 0 0 0 
0 0 0 0 0 0 0 48 239 255 255 255 255 255 255 255 
255 255 255 255 255 207 16 0 0 0 0 0 0 0 0 0 
0 0 0 0 0 0 0 0 0 0 0 0 0 0 0 0 0 0 0 0 0 0 0 0 0 0 0 
0 0 0 0 0 0 0 0 0 0 0 0 0 0 0 0 
0 0 0 0 0 0 0 0 0 0 0 0 0 0 0 0 
0 0 0 0 0 64 175 223 255 255 255 239 191 80 0 0 
0 0 0 0 0 0 0 0 0 16 112 160 191 128 48 0 
0 0 0 0 0 0 32 239 255 255 255 255 255 255 255 255 
255 255 255 255 255 255 175 0 0 0 0 0 0 0 0 0 
0 0 0 0 0 0 0 0 0 0 0 0 0 0 0 0 0 0 0 0 0 0 0 0 0 0 0 
0 0 0 0 0 0 0 0 0 0 0 0 0 0 0 0 
0 0 0 0 0 0 0 0 0 0 0 0 0 0 0 0 
0 0 0 32 207 255 255 255 255 255 255 255 255 255 207 32 
0 0 0 0 0 0 0 16 160 255 255 255 255 255 255 223 
64 0 0 0 0 0 176 255 255 255 255 255 255 255 255 255 
255 255 255 255 255 255 255 96 0 0 0 0 0 0 0 0 
0 0 0 0 0 0 0 0 0 0 0 0 0 0 0 0 0 0 0 0 0 0 0 0 0 0 0 
0 0 0 0 0 0 0 0 0 0 0 0 0 0 0 0 
0 0 0 0 0 0 0 0 0 0 0 0 0 0 0 0 
0 0 48 239 255 255 255 255 255 255 255 255 255 255 255 239 
64 0 0 0 0 0 48 223 255 255 255 255 255 255 255 255 
255 96 0 0 0 48 255 255 255 255 255 255 255 255 255 255 
255 255 255 255 255 255 255 223 0 0 0 0 0 0 0 0 
0 0 0 0 0 0 0 0 0 0 0 0 0 0 0 0 0 0 0 0 0 0 0 0 0 0 0 
0 0 0 0 0 0 0 0 0 0 0 0 0 0 0 0 
0 0 0 0 0 0 0 0 0 0 0 0 0 0 0 0 
0 32 239 255 255 255 255 255 255 255 255 255 255 255 255 255 
239 48 0 0 0 0 207 255 255 255 255 255 255 255 255 255 
255 255 64 0 0 160 255 255 255 255 255 255 255 255 255 255 
255 255 255 255 255 255 255 255 48 0 0 0 0 0 0 0 
0 0 0 0 0 0 0 0 0 0 0 0 0 0 0 0 0 0 0 0 0 0 0 0 0 0 0 
0 0 0 0 0 0 0 0 0 0 0 0 0 0 0 0 
0 0 0 0 0 0 0 0 0 0 0 0 0 0 0 0 
0 207 255 255 255 255 255 255 255 255 255 255 255 255 255 255 
255 223 0 0 0 128 255 255 255 255 255 255 255 255 255 255 
255 255 223 0 0 223 255 255 255 255 255 255 255 255 255 255 
255 255 255 255 255 255 255 255 128 0 0 0 16 80 175 255 
255 207 96 32 0 0 0 0 0 0 0 0 0 0 0 0 0 0 0 0 0 0 0 0 0 0 0 
0 0 0 0 0 0 0 0 0 0 0 0 0 0 0 0 
0 0 0 0 0 0 0 0 0 0 0 0 0 0 0 0 
96 255 255 255 255 255 255 255 255 255 255 255 255 255 255 255 
255 255 96 0 16 239 255 255 255 255 255 255 255 255 255 255 
255 255 255 96 32 255 255 255 255 255 255 255 255 255 255 255 
255 255 255 255 255 255 255 255 175 0 0 48 207 255 255 255 
255 255 255 239 80 0 0 0 0 0 0 0 0 0 0 0 0 0 0 0 0 0 0 0 0 0 0 
0 0 0 0 0 0 0 0 0 0 0 0 0 0 0 0 
0 0 0 0 0 0 0 0 0 0 0 0 0 0 0 0 
223 255 255 255 255 255 255 255 255 255 255 255 255 255 255 255 
255 255 223 0 96 255 255 255 255 255 255 255 255 255 255 255 
255 255 255 191 112 255 255 255 255 255 255 255 255 255 255 255 
255 255 255 255 255 255 255 255 191 0 32 223 255 255 255 255 
255 255 255 255 255 80 0 0 0 0 0 0 0 0 0 0 0 0 0 0 0 0 0 0 0 0 0 
0 0 0 0 0 0 0 0 0 0 0 0 0 0 0 0 
0 0 0 0 0 0 0 0 0 0 0 0 0 0 0 32 
255 255 255 255 255 255 255 255 255 255 255 255 255 255 255 255 
255 255 255 64 175 255 255 255 255 255 255 255 255 255 255 255 
255 255 255 255 255 255 255 255 255 255 255 255 255 255 255 255 
255 255 255 255 255 255 255 255 191 16 207 255 255 255 255 255 
255 255 255 255 255 239 16 0 0 0 0 0 0 0 0 0 0 0 0 0 0 0 0 0 0 0 0 
0 0 0 0 0 0 0 0 0 0 0 0 0 0 0 0 
0 0 0 0 0 0 0 0 0 0 0 0 0 0 0 80 
255 255 255 255 255 255 255 255 255 255 255 255 255 255 255 255 
255 255 255 192 239 255 255 255 255 255 255 255 255 255 255 255 
255 255 255 255 176 255 255 255 255 255 255 255 255 255 255 255 
255 255 255 255 255 255 255 255 223 160 255 255 255 255 255 255 
255 255 255 255 255 255 160 0 0 0 0 0 0 0 0 0 0 0 0 0 0 0 0 0 0 0 0 
0 0 0 0 0 0 0 64 64 64 16 0 0 0 0 0 
0 0 0 0 0 0 0 0 0 0 0 0 0 0 0 128 
255 255 255 255 255 255 255 255 255 255 255 255 255 255 255 255 
255 255 255 255 255 255 255 255 255 255 255 255 255 255 255 255 
255 255 255 207 16 239 255 255 255 255 255 255 255 255 255 255 
255 255 255 255 255 255 255 255 255 255 255 255 255 255 255 255 
255 255 255 255 255 255 239 0 0 0 0 0 0 0 0 0 0 0 0 0 0 0 0 0 0 0 0 
0 0 0 0 32 191 255 255 255 255 255 223 80 0 0 0 
0 0 0 0 0 0 0 0 0 0 0 0 0 0 0 128 
255 255 255 255 255 255 255 255 255 255 255 255 255 255 255 255 
255 255 255 144 144 255 255 255 255 255 255 255 255 255 255 255 
255 255 255 144 0 128 255 255 255 255 255 255 255 255 255 255 
255 255 255 255 255 255 255 255 112 255 255 255 255 255 255 255 
255 255 255 255 255 255 255 16 0 0 0 0 0 0 0 0 0 0 0 0 0 0 0 0 0 0 0 
0 0 0 80 255 255 255 255 255 255 255 255 255 176 0 0 
0 0 0 0 0 0 32 128 128 128 128 64 0 0 0 112 
255 255 255 255 255 255 255 255 255 255 255 255 255 255 255 255 
255 255 255 128 32 239 255 255 255 255 255 255 255 255 255 255 
255 255 255 64 0 32 239 255 255 255 255 255 255 255 255 255 
255 255 255 255 255 255 255 160 0 191 255 255 255 255 255 255 
255 255 255 255 255 255 255 64 0 0 0 0 0 0 0 0 0 0 0 0 0 0 0 0 0 0 0 
0 0 80 255 255 255 255 255 255 255 255 255 255 255 160 0 
0 0 0 0 16 175 255 255 255 255 255 255 207 48 0 64 
255 255 255 255 255 255 255 255 255 255 255 255 255 255 255 255 
255 255 255 80 0 128 255 255 255 255 255 255 255 255 255 255 
255 255 191 0 0 0 128 255 255 255 255 255 255 255 255 255 
255 255 255 255 255 255 255 16 0 128 255 255 255 255 255 255 
255 255 255 255 255 255 255 16 0 0 0 0 0 0 0 0 0 0 0 0 0 0 0 0 0 0 0 
0 16 239 255 255 255 255 255 255 255 255 255 255 255 255 128 
0 0 0 48 239 255 255 255 255 255 255 255 255 255 96 0 
255 255 255 255 255 255 255 255 255 255 255 255 255 255 255 255 
255 255 255 16 0 0 207 255 255 255 255 255 255 255 255 255 
255 239 32 0 0 0 0 207 255 255 255 255 255 255 255 255 
255 255 255 255 255 255 80 0 0 80 255 255 255 255 255 255 
255 255 255 255 255 255 223 0 0 0 0 0 0 0 0 0 0 0 0 0 0 0 0 0 0 0 0 
0 160 255 255 255 255 255 255 255 255 255 255 255 255 255 239 
0 0 32 223 255 255 255 255 255 255 255 255 255 255 255 144 
255 255 255 255 255 255 255 255 255 255 255 255 255 255 255 255 
255 255 160 0 0 0 32 207 255 255 255 255 255 255 255 255 
239 48 0 0 0 0 0 32 207 255 255 255 255 255 255 255 
255 255 255 255 255 96 0 0 0 16 223 255 255 255 255 255 
255 255 255 255 255 255 128 0 0 0 0 0 0 0 0 0 0 0 0 0 0 0 0 0 0 0 0 
0 239 255 255 255 255 255 255 255 255 255 255 255 255 255 255 
96 0 144 255 255 255 255 255 255 255 255 255 255 255 255 255 
255 255 255 255 255 255 255 255 255 255 255 255 255 255 255 255 
255 255 48 0 0 0 0 16 160 255 255 255 255 255 255 160 
32 0 0 0 0 0 0 0 16 160 255 255 255 255 255 255 
255 255 255 239 64 0 0 0 0 0 112 255 255 255 255 255 
255 255 255 255 255 239 16 0 0 0 0 0 0 0 0 0 0 0 0 0 0 0 0 0 0 0 0 
48 255 255 255 255 255 255 255 255 255 255 255 255 255 255 255 
144 64 255 255 255 255 255 255 255 255 255 255 255 255 255 255 
223 207 255 255 255 255 255 255 255 255 255 255 255 255 255 255 
255 144 0 16 64 128 191 191 160 255 239 175 128 96 16 0 
0 0 0 0 0 0 0 0 0 0 48 255 255 255 255 255 
239 191 96 0 0 0 0 0 0 0 0 160 255 255 255 255 
255 255 255 255 239 64 0 0 0 0 0 0 0 0 0 0 0 0 0 0 0 0 0 0 0 0 0 
64 255 255 255 255 255 255 255 255 255 255 255 255 255 255 255 
223 223 255 255 255 255 255 255 255 255 255 255 255 255 255 255 
223 16 176 255 255 255 255 255 255 255 255 255 255 255 255 255 
255 80 144 255 255 255 255 255 255 255 255 144 16 0 0 0 
0 0 0 0 0 0 32 128 191 255 255 255 223 64 64 32 
0 0 0 0 0 0 0 0 0 0 0 0 128 255 255 255 
255 255 255 207 48 0 0 0 0 0 0 0 0 0 0 0 0 0 0 0 0 0 0 0 0 0 0 
64 255 255 255 255 255 255 255 255 255 255 255 255 255 255 255 
255 255 255 255 255 255 255 255 255 255 255 255 255 255 255 255 
255 0 0 160 255 255 255 255 255 255 255 255 255 255 255 255 
255 255 255 255 255 255 255 255 255 255 255 255 223 32 0 0 
0 0 0 0 0 144 255 255 255 255 255 255 255 207 48 0 
0 0 0 0 0 0 0 0 0 0 0 0 0 160 255 239 
191 144 64 0 0 0 0 0 0 0 0 0 0 0 0 0 0 0 0 0 0 0 0 0 0 0 0 
48 255 255 255 255 255 255 255 255 255 255 255 255 255 255 255 
255 255 255 255 255 255 255 255 255 255 255 255 255 255 255 255 
255 0 0 0 80 207 255 255 255 255 255 255 255 223 112 176 
255 255 255 255 255 255 255 255 255 255 255 255 255 239 32 0 
0 0 0 16 191 255 255 255 255 255 255 255 255 255 255 48 
0 0 0 0 0 0 0 16 96 223 255 255 255 255 255 160 
32 0 0 0 0 0 0 0 0 0 0 0 0 0 0 0 0 0 0 0 0 0 0 0 0 0 0 
0 223 255 255 255 255 255 255 255 255 255 255 255 255 255 255 
112 223 255 255 255 255 255 255 255 255 255 255 255 255 255 255 
255 0 0 0 0 0 64 128 175 191 144 128 80 0 48 239 
255 255 255 255 255 255 255 255 255 255 255 255 255 255 207 16 
0 0 0 160 255 255 255 255 255 255 255 255 255 255 255 223 
16 0 0 0 0 0 80 239 255 255 255 255 255 255 255 255 
239 128 0 0 0 0 0 0 0 0 0 0 0 0 0 0 0 0 0 0 0 0 0 0 0 0 0 
0 128 255 255 255 255 255 255 255 255 255 255 255 255 255 255 
16 144 255 255 255 255 255 255 255 255 255 255 255 255 255 255 
239 0 0 0 0 0 0 0 0 0 0 0 0 0 191 255 
255 255 255 255 255 255 255 255 255 255 255 255 255 255 255 144 
0 0 64 255 255 255 255 255 255 255 255 255 255 255 255 255 
144 0 0 0 0 144 255 255 255 255 255 255 255 255 255 255 
255 255 175 0 0 0 0 0 0 0 0 0 0 0 0 0 0 0 0 0 0 0 0 0 0 0 0 
0 16 223 255 255 255 255 255 255 255 255 255 255 255 255 128 
0 48 255 255 255 255 255 255 255 255 255 255 255 255 255 255 
160 0 0 0 0 0 0 0 0 0 0 0 0 64 255 255 
255 255 255 255 255 255 255 255 255 255 255 255 255 255 255 255 
16 0 175 255 255 255 255 255 255 255 255 255 255 255 255 255 
239 16 0 0 160 255 255 255 255 255 255 255 255 255 255 255 
255 255 255 160 0 0 0 0 0 0 0 0 0 0 0 0 0 0 0 0 0 0 0 0 0 0 0 
0 0 48 255 255 255 255 255 255 255 255 255 255 255 207 0 
0 0 207 255 255 255 255 255 255 255 255 255 255 255 255 255 
64 0 0 80 128 112 32 0 0 0 0 0 0 160 255 255 
255 255 255 255 255 255 255 255 255 255 255 255 255 255 255 255 
112 16 255 255 255 255 255 255 255 255 255 255 255 255 255 255 
255 64 0 96 255 255 255 255 255 255 255 255 255 255 255 255 
255 255 255 255 96 0 0 0 0 0 0 0 0 0 0 0 0 0 0 0 0 0 0 0 0 0 0 
0 0 0 64 239 255 255 255 255 255 255 255 255 207 16 0 
0 0 64 255 255 255 255 255 255 255 255 255 255 255 255 191 
32 175 239 255 255 255 255 207 96 0 0 0 0 223 255 255 
255 255 255 255 255 255 255 255 255 255 255 255 255 255 255 255 
207 96 255 255 255 255 255 255 255 255 255 255 255 255 255 255 
255 128 16 239 255 255 255 255 255 255 255 255 255 255 255 255 
255 255 255 255 239 0 0 0 0 0 0 0 0 0 0 0 0 0 0 0 0 0 0 0 0 0 0 
0 0 0 0 16 160 239 255 255 255 255 255 128 0 0 0 
0 0 0 96 255 255 255 255 255 255 255 255 255 255 255 255 
255 255 255 255 255 255 255 255 255 160 16 0 0 255 255 255 
255 255 255 255 255 255 255 255 255 255 255 255 255 255 255 255 
255 239 255 255 255 255 255 255 255 255 255 255 255 255 255 255 
255 128 128 255 255 255 255 255 255 255 255 255 255 255 255 255 
255 255 255 255 255 96 0 0 0 0 0 0 0 0 0 0 0 0 0 0 0 0 0 0 0 0 0 
0 0 0 0 0 0 0 80 128 223 255 255 191 191 160 128 
48 0 0 0 80 223 255 255 255 255 255 255 255 176 223 255 
255 255 255 255 255 255 255 255 255 255 160 0 64 255 255 255 
255 255 255 255 255 255 255 255 255 255 255 255 255 255 255 255 
255 239 255 255 255 255 255 255 255 255 255 255 255 255 255 255 
255 223 255 255 255 255 255 255 255 255 255 255 255 255 255 255 
255 255 255 255 255 175 0 0 0 0 0 0 0 0 0 0 0 0 0 0 0 0 0 0 0 0 0 
0 0 0 0 0 0 0 48 191 255 255 255 255 255 255 255 
255 175 48 0 0 16 96 191 255 255 239 144 48 0 239 255 
255 255 255 255 255 255 255 255 255 255 255 112 64 255 255 255 
255 255 255 255 255 255 255 255 255 255 255 255 255 255 255 255 
255 48 255 255 255 255 255 255 255 255 255 255 255 255 255 255 
255 255 255 255 255 255 255 255 255 255 255 255 255 255 255 255 
255 255 255 255 255 255 0 0 0 0 0 0 0 0 0 0 0 0 0 0 0 0 0 0 0 0 0 
0 0 0 0 0 0 112 255 255 255 255 255 255 255 255 255 
255 255 255 112 0 0 0 0 0 0 0 0 0 96 255 255 
255 255 255 255 255 255 255 255 255 255 255 239 128 255 255 255 
255 255 255 255 255 255 255 255 255 255 255 255 255 255 255 255 
239 0 175 255 255 255 255 255 255 255 255 255 255 255 255 255 
239 80 255 255 255 255 255 255 255 255 255 255 255 255 255 255 
255 255 255 255 255 255 32 0 0 0 0 0 0 0 0 0 0 0 0 0 0 0 0 0 0 0 0 
0 0 0 0 0 128 255 255 255 255 255 255 255 255 255 255 
255 255 255 255 112 0 0 0 0 0 0 0 0 207 255 255 
255 255 255 255 255 255 255 255 255 255 255 255 255 255 255 255 
255 255 255 255 255 255 255 255 255 255 255 255 255 255 255 255 
175 0 32 255 255 255 255 255 255 255 255 255 255 255 255 255 
96 64 255 255 255 255 255 255 255 255 255 255 255 255 255 255 
255 255 255 255 255 255 64 0 0 0 0 0 0 0 0 0 0 0 0 0 0 0 0 0 0 0 0 
0 0 0 0 80 255 255 255 255 255 255 255 255 255 255 255 
255 255 255 255 255 64 0 0 0 0 0 0 0 255 255 255 
255 255 255 255 255 255 255 255 255 255 255 255 239 255 255 255 
255 255 255 255 255 255 255 255 255 255 255 255 255 255 255 255 
96 0 0 128 255 255 255 255 255 255 255 255 255 255 255 176 
0 0 255 255 255 255 255 255 255 255 255 255 255 255 255 255 
255 255 255 255 255 255 48 0 0 0 0 0 0 0 0 0 0 0 0 0 0 0 0 0 0 0 0 
0 0 0 16 223 255 255 255 255 255 255 255 255 255 255 255 
255 255 255 255 255 223 0 0 0 0 0 0 16 255 255 255 
255 255 255 255 255 255 255 255 255 255 255 255 191 80 255 255 
255 255 255 255 255 255 255 255 255 255 255 255 255 255 255 239 
16 0 0 0 128 255 255 255 255 255 255 255 255 255 191 0 
0 0 239 255 255 255 255 255 255 255 255 255 255 255 255 255 
255 255 255 255 255 255 0 0 0 0 0 0 0 0 0 0 0 0 0 0 0 0 0 0 0 0 0 
0 0 0 128 255 255 255 255 255 255 255 255 255 255 255 255 
255 255 255 255 255 255 96 0 0 0 0 0 32 255 255 255 
255 255 255 255 255 255 255 255 255 255 255 255 160 0 176 255 
255 255 255 255 255 255 255 255 255 255 255 255 255 255 255 128 
0 0 0 0 0 128 255 255 255 255 255 255 239 112 0 0 
0 0 175 255 255 255 255 255 255 255 255 255 255 255 255 255 
255 255 255 255 255 191 0 0 0 0 0 0 0 0 0 0 0 0 0 0 0 0 0 0 0 0 0 
0 0 0 223 255 255 255 255 255 255 255 255 255 255 255 255 
255 255 255 255 255 255 191 0 0 0 0 0 0 255 255 255 
255 255 255 255 255 255 255 255 255 255 255 255 128 0 16 223 
255 255 255 255 255 255 255 255 255 255 255 255 255 255 223 16 
80 191 223 255 255 207 255 192 128 128 128 64 16 0 0 0 
0 0 80 255 255 255 255 255 255 255 255 255 255 255 255 255 
255 255 255 255 255 112 0 0 0 0 0 0 0 0 0 0 0 0 0 0 0 0 0 0 0 0 0 
0 0 32 255 255 255 255 255 255 255 255 255 255 255 255 255 
255 255 255 255 255 255 255 16 0 0 0 0 0 175 255 255 
255 255 255 255 255 255 255 255 255 255 255 255 48 0 0 48 
239 255 255 255 255 255 255 255 255 255 255 255 255 255 192 223 
255 255 255 255 255 255 255 239 64 0 0 0 0 0 0 0 
0 0 0 223 255 255 255 255 255 255 255 255 255 255 255 255 
255 255 255 255 239 16 0 0 0 0 0 0 0 0 0 0 0 0 0 0 0 0 0 0 0 0 0 
0 0 64 255 255 255 255 255 255 255 255 255 255 255 255 255 
255 255 255 255 255 255 255 64 0 0 0 0 0 96 255 255 
255 255 255 255 255 255 255 255 255 255 255 223 0 0 0 0 
48 207 255 255 255 255 255 255 255 255 255 255 191 192 255 255 
255 255 255 255 255 255 255 255 255 96 0 0 0 0 0 0 
0 0 0 80 255 255 255 255 255 255 255 255 255 255 255 255 
255 255 255 255 112 0 0 0 0 0 0 0 0 0 0 0 0 0 0 0 0 0 0 0 0 0 0 
0 0 80 255 255 255 255 255 255 255 255 255 255 255 255 255 
255 255 255 255 255 255 255 64 0 0 0 0 0 0 207 255 
255 255 255 255 255 255 255 255 255 255 255 112 0 0 0 0 
0 16 112 255 255 255 255 255 255 255 223 80 0 223 255 255 
255 255 255 255 255 255 255 255 255 239 32 0 0 0 0 0 
0 0 0 0 160 255 255 255 255 255 255 255 255 255 255 255 
255 255 255 176 0 0 0 0 0 0 0 0 0 0 0 0 0 0 0 0 0 0 0 0 0 0 0 
0 0 112 255 255 255 255 255 255 255 255 255 255 255 255 255 
255 255 255 255 255 255 255 64 0 0 0 0 0 0 32 239 
255 255 255 255 255 255 255 255 255 255 144 0 0 0 0 32 
80 128 128 207 255 175 128 128 96 16 0 0 112 255 255 255 
255 255 255 255 255 255 255 255 255 255 191 0 0 0 0 0 
0 0 0 0 0 160 255 255 255 255 255 255 255 255 255 255 
255 255 191 0 0 0 0 0 0 0 0 0 0 0 0 0 0 0 0 0 0 0 0 0 0 0 0 
0 0 64 255 255 255 255 255 255 255 255 255 255 255 255 255 
255 255 255 255 255 255 255 64 0 0 0 16 64 64 32 48 
255 255 255 255 255 255 255 255 255 128 0 0 0 16 144 255 
255 255 255 255 255 207 80 0 0 0 0 0 223 255 255 255 
255 255 255 255 255 255 255 255 255 255 255 32 0 0 0 0 
0 0 0 0 0 0 96 239 255 255 255 255 255 255 255 255 
255 128 0 0 0 0 0 0 0 0 0 0 0 0 0 0 0 0 0 0 0 0 0 0 0 0 0 
0 0 32 255 255 255 255 255 255 255 255 255 255 255 255 255 
255 255 255 255 255 255 255 16 0 80 191 255 255 255 255 223 
255 255 255 255 255 255 255 191 64 0 0 0 32 223 255 255 
255 255 255 255 255 255 255 112 0 0 0 32 255 255 255 255 
255 255 255 255 255 255 255 255 255 255 255 112 0 0 0 0 
0 0 0 0 0 0 0 32 160 255 255 255 255 255 239 128 
32 0 0 0 0 0 0 0 0 0 0 0 0 0 0 0 0 0 0 0 0 0 0 0 0 0 0 
0 0 0 223 255 255 255 255 255 255 255 255 255 255 255 255 
255 255 255 255 255 255 207 16 160 255 255 255 255 255 255 255 
255 239 48 16 64 48 0 0 0 0 0 16 223 255 255 255 
255 255 255 255 255 255 255 255 96 0 0 64 255 255 255 255 
255 255 255 255 255 255 255 255 255 255 255 128 0 0 0 0 
0 0 0 0 32 96 175 191 223 255 192 64 32 0 0 0 
0 0 0 0 0 0 0 0 0 0 0 0 0 0 0 0 0 0 0 0 0 0 0 0 0 0 0 
0 0 0 96 255 255 255 255 255 255 255 255 255 255 255 255 
255 255 255 255 255 255 223 207 255 255 255 255 255 255 255 255 
255 255 239 48 0 0 0 0 0 0 0 160 255 255 255 255 
255 255 255 255 255 255 255 255 239 16 0 64 255 255 255 255 
255 255 255 255 255 255 255 255 255 255 255 160 0 0 0 0 
0 0 0 112 239 255 255 255 255 255 255 207 48 0 0 0 
0 0 0 0 0 0 0 0 0 0 0 0 0 0 0 0 0 0 0 0 0 0 0 0 0 0 0 
0 0 0 16 223 255 255 255 255 255 255 255 255 255 255 255 
255 255 255 255 255 255 255 255 255 255 255 255 255 255 255 255 
255 255 255 207 0 0 0 0 0 0 32 255 255 255 255 255 
255 255 255 255 255 255 255 255 255 128 0 64 255 255 255 255 
255 255 255 255 255 255 255 255 255 255 255 128 0 0 0 0 
0 0 160 255 255 255 255 255 255 255 255 255 239 64 0 0 
0 0 0 0 0 0 0 0 0 0 0 0 0 0 0 0 0 0 0 0 0 0 0 0 0 0 0 
0 0 0 0 64 255 255 255 255 255 255 255 255 255 255 255 
255 255 255 255 255 223 255 255 255 255 255 255 255 255 255 255 
255 255 255 255 96 0 0 0 0 0 128 255 255 255 255 255 
255 255 255 255 255 255 255 255 255 207 0 0 239 255 255 255 
255 255 255 255 255 255 255 255 255 255 255 96 0 0 0 0 
0 128 255 255 255 255 255 255 255 255 255 255 255 239 48 0 
0 0 0 0 0 0 0 0 0 0 0 0 0 0 0 0 0 0 0 0 0 0 0 0 0 0 0 
0 0 0 0 0 96 255 255 255 255 255 255 255 255 255 255 
255 255 255 255 112 144 255 255 255 255 255 255 255 255 255 255 
255 255 255 255 191 0 0 0 0 0 175 255 255 255 255 255 
255 255 255 255 255 255 255 255 255 255 16 0 160 255 255 255 
255 255 255 255 255 255 255 255 255 255 239 16 0 0 0 0 
32 255 255 255 255 255 255 255 255 255 255 255 255 255 191 0 
0 0 0 0 0 0 0 0 0 0 0 0 0 0 0 0 0 0 0 0 0 0 0 0 0 0 0 
0 0 0 0 0 0 112 255 255 255 255 255 255 255 255 255 
255 255 255 96 0 191 255 255 255 255 255 255 255 255 255 255 
255 255 255 255 255 0 0 0 0 0 191 255 255 255 255 255 
255 255 255 255 255 255 255 255 255 255 64 0 48 255 255 255 
255 255 255 255 255 255 255 255 255 255 128 0 0 0 0 0 
160 255 255 255 255 255 255 255 255 255 255 255 255 255 255 48 
0 0 0 0 0 0 0 0 0 0 0 0 0 0 0 0 0 0 0 0 0 0 0 0 16 96 207 
255 255 255 255 239 128 48 48 175 255 255 255 255 255 255 255 
255 175 16 0 0 191 255 255 255 255 255 255 255 255 255 255 
255 255 255 255 255 64 0 0 0 0 191 255 255 255 255 255 
255 255 255 255 255 255 255 255 255 255 64 0 0 128 255 255 
255 255 255 255 255 255 255 255 255 207 0 0 0 0 0 0 
239 255 255 255 255 255 255 255 255 255 255 255 255 255 255 144 
0 0 0 0 0 0 0 0 0 0 0 0 0 0 0 0 0 0 0 0 0 0 0 96 239 255 255 
255 255 255 255 255 255 255 144 16 32 128 160 191 191 144 128 
32 0 0 0 0 191 255 255 255 255 255 255 255 255 255 255 
255 255 255 255 255 64 0 0 0 0 144 255 255 255 255 255 
255 255 255 255 255 255 255 255 255 255 0 0 0 0 160 255 
255 255 255 255 255 255 255 255 207 32 0 0 0 0 0 48 
255 255 255 255 255 255 255 255 255 255 255 255 255 255 255 191 
0 0 0 0 0 0 0 0 0 0 0 0 0 0 0 0 0 0 0 0 0 0 160 255 255 255 255 
255 255 255 255 255 255 255 255 223 16 0 0 0 0 0 0 
0 0 0 0 0 191 255 255 255 255 255 255 255 255 255 255 
255 255 255 255 255 16 0 0 0 0 80 255 255 255 255 255 
255 255 255 255 255 255 255 255 255 191 0 0 0 0 0 80 
239 255 255 255 255 255 255 160 16 0 0 0 0 0 0 64 
255 255 255 255 255 255 255 255 255 255 255 255 255 255 255 191 
0 0 0 0 0 0 0 0 0 0 0 0 0 0 0 0 0 0 0 0 0 176 255 255 255 255 255 
255 255 255 255 255 255 255 255 255 223 16 0 0 0 0 0 
0 0 0 0 0 144 255 255 255 255 255 255 255 255 255 255 
255 255 255 255 223 0 0 0 0 0 0 239 255 255 255 255 
255 255 255 255 255 255 255 255 255 80 0 0 0 0 0 0 
0 48 128 191 160 128 160 175 239 255 239 160 80 0 0 64 
255 255 255 255 255 255 255 255 255 255 255 255 255 255 255 191 
0 0 0 0 0 0 0 0 0 0 0 0 0 0 0 0 0 0 0 0 112 255 255 255 255 255 255 
255 255 255 255 255 255 255 255 255 255 176 0 0 0 0 0 
0 0 0 0 0 48 255 255 255 255 255 255 255 255 255 255 
255 255 255 255 128 0 0 0 0 0 0 80 255 255 255 255 
255 255 255 255 255 255 255 255 207 0 0 0 0 0 0 0 
0 0 0 0 48 192 255 255 255 255 255 255 255 207 48 0 
255 255 255 255 255 255 255 255 255 255 255 255 255 255 255 160 
0 0 0 0 0 0 0 0 0 0 0 0 0 0 0 0 0 0 0 32 239 255 255 255 255 255 255 
255 255 255 255 255 255 255 255 255 255 255 80 0 0 0 0 
0 0 0 0 0 0 176 255 255 255 255 255 255 255 255 255 
255 255 255 255 16 0 0 0 0 0 0 0 160 255 255 255 
255 255 255 255 255 255 255 239 32 0 0 0 0 0 0 0 
0 0 0 32 223 255 255 255 255 255 255 255 255 255 239 48 
207 255 255 255 255 255 255 255 255 255 255 255 255 255 255 80 
0 0 0 0 0 0 0 0 0 0 0 0 0 0 0 0 0 0 0 144 255 255 255 255 255 255 255 
255 255 255 255 255 255 255 255 255 255 255 207 0 0 0 0 
0 0 0 0 0 0 16 239 255 255 255 255 255 255 255 255 
255 255 255 80 0 0 0 0 0 0 0 0 0 144 255 255 
255 255 255 255 255 255 223 32 0 0 0 0 0 0 0 0 
0 0 16 223 255 255 255 255 255 255 255 255 255 255 255 255 
239 255 255 255 255 255 255 255 255 255 255 255 255 255 223 0 
0 0 0 0 0 0 0 0 0 0 0 0 0 0 0 0 0 0 0 239 255 255 255 255 255 255 255 
255 255 255 255 255 255 255 255 255 255 255 255 32 0 0 0 
0 0 0 48 64 32 0 48 239 255 255 255 255 255 255 255 
255 255 128 0 32 32 0 0 0 0 0 0 0 0 48 160 
239 255 255 255 255 207 80 64 64 32 0 0 0 0 0 0 
0 0 144 255 255 255 255 255 255 255 255 255 255 255 255 255 
255 255 255 255 255 255 255 255 255 255 255 255 255 255 80 0 
0 0 0 0 0 0 0 0 0 0 0 0 0 0 0 0 0 0 64 255 255 255 255 255 255 255 255 
255 255 255 255 255 255 255 255 255 255 255 255 112 0 0 0 
48 175 223 255 255 255 223 160 64 207 255 255 255 255 255 255 
255 255 191 239 255 255 239 191 64 0 0 0 0 0 0 0 
0 64 64 144 255 255 255 255 255 255 207 160 16 0 0 0 
0 0 239 255 255 255 255 255 255 255 255 255 255 255 255 255 
255 64 223 255 255 255 255 255 255 255 255 255 255 144 0 0 
0 0 0 0 0 0 0 0 0 0 0 0 0 0 0 0 0 0 96 255 255 255 255 255 255 255 255 
255 255 255 255 255 255 255 255 255 255 255 255 144 0 0 112 
255 255 255 255 255 255 255 255 255 96 16 112 175 191 144 80 
239 255 255 255 255 255 255 255 255 191 16 0 0 0 0 0 
0 32 191 255 255 255 255 255 255 255 255 255 255 128 0 0 
0 64 255 255 255 255 255 255 255 255 255 255 255 255 255 255 
255 80 16 175 255 255 255 255 255 255 255 239 112 0 0 0 
0 0 0 0 0 0 0 0 0 0 0 0 0 0 0 0 0 0 128 255 255 255 255 255 255 255 255 
255 255 255 255 255 255 255 255 255 255 255 255 191 0 160 255 
255 255 255 255 255 255 255 255 255 255 96 0 0 0 16 207 
255 255 255 255 255 255 255 255 255 255 207 16 0 0 0 0 
48 223 255 255 255 255 255 255 255 255 255 255 255 255 176 0 
0 128 255 255 255 255 255 255 255 255 255 255 255 255 255 255 
255 128 0 0 80 160 239 255 255 255 255 112 64 32 0 0 
0 0 0 0 0 0 0 0 0 0 0 0 0 0 0 0 0 0 128 255 255 255 255 255 255 255 255 
255 255 255 255 255 255 255 255 255 255 255 255 191 96 255 255 
255 255 255 255 255 255 255 255 255 255 239 32 0 0 144 255 
255 255 255 255 255 255 255 255 255 255 255 159 0 0 0 16 
223 255 255 255 255 255 255 255 255 255 255 255 255 255 255 160 
0 128 255 255 255 255 255 255 255 255 255 255 255 255 255 255 
255 128 0 0 0 0 0 48 80 239 255 255 255 255 223 160 
16 0 0 0 0 0 0 0 0 0 0 0 0 0 0 0 0 0 64 255 255 255 255 255 255 255 255 
255 255 255 255 255 255 255 255 255 255 255 255 239 255 255 255 
255 255 255 255 255 255 255 255 255 255 255 191 0 48 255 255 
255 255 255 255 255 255 255 255 255 255 255 255 64 0 0 191 
255 255 255 255 255 255 255 255 255 255 255 255 255 255 255 255 
112 128 255 255 255 255 255 255 255 255 255 255 255 255 255 255 
255 128 0 0 0 0 0 112 255 255 255 255 255 255 255 255 
239 64 0 0 0 0 0 0 0 0 0 0 0 0 0 0 0 0 16 255 255 255 255 255 255 255 255 
255 255 255 255 255 255 255 255 255 255 255 255 255 255 255 255 
255 255 255 255 255 255 255 255 255 255 255 255 32 160 255 255 
255 255 255 255 255 255 255 255 255 255 255 255 160 0 96 255 
255 255 255 255 255 255 255 255 255 255 255 255 255 255 255 255 
239 192 255 255 255 255 255 255 255 255 255 255 255 255 255 255 
255 80 0 0 0 0 112 255 255 255 255 255 255 255 255 255 
255 255 96 0 0 0 0 0 0 0 0 0 0 0 0 0 0 0 0 207 255 255 255 255 255 255 255 
255 255 255 255 255 255 255 255 255 255 255 255 255 255 255 255 
255 255 255 255 255 255 255 255 255 255 255 255 144 255 255 255 
255 255 255 255 255 255 255 255 255 255 255 255 239 0 207 255 
255 255 255 255 255 255 255 255 255 255 255 255 255 255 255 255 
255 255 255 255 255 255 255 255 255 255 255 255 255 255 255 255 
255 16 0 0 0 64 255 255 255 255 255 255 255 255 255 255 
255 255 239 32 0 0 0 0 0 0 0 0 0 0 0 0 0 0 0 112 255 255 255 255 255 255 255 
255 255 255 255 255 255 255 255 255 255 255 207 255 255 255 255 
255 255 255 255 255 255 255 255 255 255 255 255 255 255 255 255 
255 255 255 255 255 255 255 255 255 255 255 255 255 96 255 255 
255 255 255 255 255 255 255 255 255 255 255 255 255 255 255 255 
255 255 207 255 255 255 255 255 255 255 255 255 255 255 255 255 
128 0 0 0 0 191 255 255 255 255 255 255 255 255 255 255 
255 255 255 175 0 0 0 0 0 0 0 0 0 0 0 0 0 0 0 0 223 255 255 255 255 255 255 
255 255 255 255 255 255 255 255 255 255 255 32 223 255 255 255 
255 255 255 255 255 255 255 255 255 255 255 255 255 255 255 255 
255 255 255 255 255 255 255 255 255 255 255 255 255 255 255 255 
255 255 255 255 255 255 255 255 255 255 255 255 255 255 255 255 
255 255 16 223 255 255 255 255 255 255 255 255 255 255 255 223 
16 0 0 0 48 255 255 255 255 255 255 255 255 255 255 255 
255 255 255 255 32 0 0 0 0 0 0 0 0 0 0 0 0 0 0 0 64 255 255 255 255 255 255 
255 255 255 255 255 255 255 255 255 255 112 0 191 255 255 255 
255 255 255 255 255 255 255 255 255 255 255 255 255 255 255 255 
255 255 255 255 255 255 255 255 255 255 255 255 255 255 255 255 
255 255 255 255 255 255 255 255 255 255 255 255 255 255 255 255 
255 255 48 48 239 255 255 255 255 255 255 255 255 255 239 48 
0 0 0 0 112 255 255 255 255 255 255 255 255 255 255 255 
255 255 255 255 80 0 0 0 0 0 0 0 0 0 0 0 0 0 0 0 0 96 255 255 255 255 255 
255 255 255 255 255 255 255 255 255 160 0 0 128 255 255 255 
255 255 255 255 255 255 255 255 255 255 255 255 80 239 255 255 
255 255 255 255 255 255 255 255 255 255 255 255 239 239 255 255 
255 255 255 255 255 255 255 255 255 255 255 255 255 255 255 255 
255 255 64 0 16 191 255 255 255 255 255 255 255 191 32 0 
0 0 0 0 144 255 255 255 255 255 255 255 255 255 255 255 
255 255 255 255 128 0 0 0 0 0 0 0 0 0 0 0 0 0 0 0 0 0 80 239 255 255 255 
255 255 255 255 255 255 255 255 128 0 0 0 32 255 255 255 
255 255 255 255 255 255 255 255 255 255 255 223 0 128 255 255 
255 255 255 255 255 255 255 255 255 255 255 255 128 144 255 255 
255 255 255 255 255 255 255 255 255 255 255 255 255 255 255 255 
255 255 64 0 0 0 80 144 207 255 255 255 191 64 32 0 
0 0 0 0 191 255 255 255 255 255 255 255 255 255 255 255 
255 255 255 255 128 0 0 0 0 0 0 0 0 0 0 0 0 0 0 0 0 0 0 32 176 255 255 
255 255 255 255 255 255 207 48 0 0 0 0 0 191 255 255 
255 255 255 255 255 255 255 255 255 255 255 128 0 16 239 255 
255 255 255 255 255 255 255 255 255 255 255 255 16 80 255 255 
255 255 255 255 255 255 255 255 255 255 255 255 255 255 255 255 
255 255 16 0 0 0 0 0 0 16 176 255 255 255 255 223 
160 16 0 0 144 255 255 255 255 255 255 255 255 255 255 255 
255 255 255 255 112 0 0 0 0 0 0 0 0 0 0 0 0 0 0 0 0 0 0 0 0 16 96 
175 191 191 191 144 32 0 0 0 0 0 0 0 32 239 255 
255 255 255 255 255 255 255 255 255 255 207 0 0 0 80 255 
255 255 255 255 255 255 255 255 255 255 255 112 0 32 255 255 
255 255 255 255 255 255 255 255 255 255 255 255 255 255 255 255 
255 207 0 0 0 0 0 0 96 255 255 255 255 255 255 255 
255 255 112 0 96 255 255 255 255 255 255 255 255 255 255 255 
255 255 255 255 48 0 0 0 0 0 0 0 0 0 0 0 0 0 0 0 0 0 0 0 0 0 0 
0 0 0 0 0 0 0 0 0 0 0 0 0 0 64 239 
255 255 255 255 255 255 255 255 255 207 16 0 0 0 0 112 
255 255 255 255 255 255 255 255 255 255 128 0 0 0 207 255 
255 255 255 255 255 255 255 255 255 255 255 255 255 255 255 255 
255 128 0 0 0 0 0 96 255 255 255 255 255 255 255 255 
255 255 255 96 32 255 255 255 255 255 255 255 255 255 255 255 
255 255 255 223 0 0 0 0 0 0 0 0 0 0 0 0 0 0 0 0 0 0 0 0 0 0 0 
0 0 0 0 0 0 0 0 0 0 0 0 0 0 0 32 
207 255 255 255 255 255 255 255 160 16 0 0 0 0 0 0 
64 239 255 255 255 255 255 255 239 96 0 0 0 0 96 255 
255 255 255 255 255 255 255 255 255 255 255 255 255 255 255 255 
255 16 0 0 0 0 32 239 255 255 255 255 255 255 255 255 
255 255 255 255 64 176 255 255 255 255 255 255 255 255 255 255 
255 255 255 128 0 0 0 0 0 0 0 0 0 0 0 0 0 0 0 0 0 0 0 0 0 0 0 
0 0 0 0 0 0 0 0 0 0 0 0 0 0 0 0 
0 64 160 191 191 191 144 32 0 0 0 0 0 0 0 0 
0 0 96 175 191 191 191 96 16 0 0 0 0 0 0 207 
255 255 255 255 255 255 255 255 255 255 255 255 255 255 255 255 
128 0 0 0 0 0 191 255 255 255 255 255 255 255 255 255 
255 255 255 255 207 16 239 255 255 255 255 255 255 255 255 255 
255 255 207 0 0 0 0 0 0 0 0 0 0 0 0 0 0 0 0 0 0 0 0 0 0 0 0 
0 0 0 0 0 0 0 0 0 0 0 0 0 0 0 0 
0 0 0 0 0 0 0 0 0 0 0 0 0 0 0 0 
0 0 0 0 0 0 0 0 0 0 0 0 0 0 0 32 
239 255 255 255 255 255 255 255 255 255 255 255 255 255 255 207 
0 0 0 0 0 32 255 255 255 255 255 255 255 255 255 255 
255 255 255 255 255 48 48 239 255 255 255 255 255 255 255 255 
255 207 16 0 0 0 0 0 0 0 0 0 0 0 0 0 0 0 0 0 0 0 0 0 0 0 0 
0 0 0 0 0 0 0 0 0 0 0 0 0 0 0 0 
0 0 0 0 0 0 0 0 0 0 0 0 0 0 0 0 
0 0 0 0 0 0 0 0 0 0 0 0 0 0 0 0 
48 239 255 255 255 255 255 255 255 255 255 255 255 255 207 16 
0 0 0 0 0 112 255 255 255 255 255 255 255 255 255 255 
255 255 255 255 255 128 0 32 207 255 255 255 255 255 255 255 
160 16 0 0 0 0 0 0 0 0 0 0 0 0 0 0 0 0 0 0 0 0 0 0 0 0 0 
0 0 0 0 0 0 0 0 0 0 0 0 0 0 0 0 
0 0 0 0 0 0 0 0 0 0 0 0 0 0 0 0 
0 0 0 0 0 0 0 0 0 0 0 0 0 0 0 0 
0 16 191 255 255 255 255 255 255 255 255 255 255 160 0 0 
0 0 0 0 0 128 255 255 255 255 255 255 255 255 255 255 
255 255 255 255 255 175 0 0 0 64 160 191 191 191 144 32 
0 0 0 0 0 0 0 0 0 0 0 0 0 0 0 0 0 0 0 0 0 0 0 0 0 0 0 
0 0 0 0 0 0 0 0 0 0 0 0 0 0 0 0 
0 0 0 0 0 0 0 0 0 0 0 0 0 0 0 0 
0 0 0 0 0 0 0 0 0 0 0 0 0 0 0 0 
0 0 0 96 191 255 255 255 255 255 255 160 80 0 0 0 
0 0 0 0 0 128 255 255 255 255 255 255 255 255 255 255 
255 255 255 255 255 191 0 0 0 0 0 0 0 0 0 0 
0 0 0 0 0 0 0 0 0 0 0 0 0 0 0 0 0 0 0 0 0 0 0 0 0 0 0 
0 0 0 0 0 0 0 0 0 0 0 0 0 0 0 0 
0 0 0 0 0 0 0 0 0 0 0 0 0 0 0 0 
0 0 0 0 0 0 0 0 0 0 0 0 0 0 0 0 
0 0 0 0 0 48 64 64 64 64 32 0 0 0 0 0 
0 0 0 0 0 128 255 255 255 255 255 255 255 255 255 255 
255 255 255 255 255 128 0 0 0 0 0 0 0 0 0 0 
0 0 0 0 0 0 0 0 0 0 0 0 0 0 0 0 0 0 0 0 0 0 0 0 0 0 0 
0 0 0 0 0 0 0 0 0 0 0 0 0 0 0 0 
0 0 0 0 0 0 0 0 0 0 0 0 0 0 0 0 
0 0 0 0 0 0 0 0 0 0 0 0 0 0 0 0 
0 0 0 0 0 0 0 0 0 0 0 0 0 0 0 0 
0 0 0 0 0 48 255 255 255 255 255 255 255 255 255 255 
255 255 255 255 255 80 0 0 0 0 0 0 0 0 0 0 
0 0 0 0 0 0 0 0 0 0 0 0 0 0 0 0 0 0 0 0 0 0 0 0 0 0 0 
0 0 0 0 0 0 0 0 0 0 0 0 0 0 0 0 
0 0 0 0 0 0 0 0 0 0 0 0 0 0 0 0 
0 0 0 0 0 0 0 0 0 0 0 0 0 0 0 0 
0 0 0 0 0 0 0 0 0 0 0 0 0 0 0 0 
0 0 0 0 0 0 223 255 255 255 255 255 255 255 255 255 
255 255 255 255 239 16 0 0 0 0 0 0 0 0 0 0 
0 0 0 0 0 0 0 0 0 0 0 0 0 0 0 0 0 0 0 0 0 0 0 0 0 0 0 
0 0 0 0 0 0 0 0 0 0 0 0 0 0 0 0 
0 0 0 0 0 0 0 0 0 0 0 0 0 0 0 0 
0 0 0 0 0 0 0 0 0 0 0 0 0 0 0 0 
0 0 0 0 0 0 0 0 0 0 0 0 0 0 0 0 
0 0 0 0 0 0 112 255 255 255 255 255 255 255 255 255 
255 255 255 255 144 0 0 0 0 0 0 0 0 0 0 0 
0 0 0 0 0 0 0 0 0 0 0 0 0 0 0 0 0 0 0 0 0 0 0 0 0 0 0 
0 0 0 0 0 0 0 0 0 0 0 0 0 0 0 0 
0 0 0 0 0 0 0 0 0 0 0 0 0 0 0 0 
0 0 0 0 0 0 0 0 0 0 0 0 0 0 0 0 
0 0 0 0 0 0 0 0 0 0 0 0 0 0 0 0 
0 0 0 0 0 0 0 191 255 255 255 255 255 255 255 255 
255 255 255 223 16 0 0 0 0 0 0 0 0 0 0 0 
0 0 0 0 0 0 0 0 0 0 0 0 0 0 0 0 0 0 0 0 0 0 0 0 0 0 0 
0 0 0 0 0 0 0 0 0 0 0 0 0 0 0 0 
0 0 0 0 0 0 0 0 0 0 0 0 0 0 0 0 
0 0 0 0 0 0 0 0 0 0 0 0 0 0 0 0 
0 0 0 0 0 0 0 0 0 0 0 0 0 0 0 0 
0 0 0 0 0 0 0 16 207 255 255 255 255 255 255 255 
255 255 207 48 0 0 0 0 0 0 0 0 0 0 0 0 
0 0 0 0 0 0 0 0 0 0 0 0 0 0 0 0 0 0 0 0 0 0 0 0 0 0 0 
0 0 0 0 0 0 0 0 0 0 0 0 0 0 0 0 
0 0 0 0 0 0 0 0 0 0 0 0 0 0 0 0 
0 0 0 0 0 0 0 0 0 0 0 0 0 0 0 0 
0 0 0 0 0 0 0 0 0 0 0 0 0 0 0 0 
0 0 0 0 0 0 0 0 16 160 255 255 255 255 255 255 
255 160 16 0 0 0 0 0 0 0 0 0 0 0 0 0 
0 0 0 0 0 0 0 0 0 0 0 0 0 0 0 0 0 0 0 0 0 0 0 0 0 0 0 
0 0 0 0 0 0 0 0 0 0 0 0 0 0 0 0 
0 0 0 0 0 0 0 0 0 0 0 0 0 0 0 0 
0 0 0 0 0 0 0 0 0 0 0 0 0 0 0 0 
0 0 0 0 0 0 0 0 0 0 0 0 0 0 0 0 
0 0 0 0 0 0 0 0 0 0 32 128 191 191 191 128 
32 0 0 0 0 0 0 0 0 0 0 0 0 0 0 0 
0 0 0 0 0 0 0 0 0 0 0 0 0 0 0 0 0 0 0 0 0 0 0 0 0 0 0 
0 0 0 0 0 0 0 0 0 0 0 0 0 0 0 0 
0 0 0 0 0 0 0 0 0 0 0 0 0 0 0 0 
0 0 0 0 0 0 0 0 0 0 0 0 0 0 0 0 
0 0 0 0 0 0 0 0 0 0 0 0 0 0 0 0 
0 0 0 0 0 0 0 0 0 0 0 0 0 0 0 0 
0 0 0 0 0 0 0 0 0 0 0 0 0 0 0 0 
0 0 0 0 0 0 0 0 0 0 0 0 0 0 0 0 0 0 0 0 0 0 0 0 0 0 0 
0 0 0 0 0 0 0 0 0 0 0 0 0 0 0 0 
0 0 0 0 0 0 0 0 0 0 0 0 0 0 0 0 
0 0 0 0 0 0 0 0 0 0 0 0 0 0 0 0 
0 0 0 0 0 0 0 0 0 0 0 0 0 0 0 0 
0 0 0 0 0 0 0 0 0 0 0 0 0 0 0 0 
0 0 0 0 0 0 0 0 0 0 0 0 0 0 0 0 
0 0 0 0 0 0 0 0 0 0 0 0 0 0 0 0 0 0 0 0 0 0 0 0 0 0 0 
0 0 0 0 0 0 0 0 0 0 0 0 0 0 0 0 
0 0 0 0 0 0 0 0 0 0 0 0 0 0 0 0 
0 0 0 0 0 0 0 0 0 0 0 0 0 0 0 0 
0 0 0 0 0 0 0 0 0 0 0 0 0 0 0 0 
0 0 0 0 0 0 0 0 0 0 0 0 0 0 0 0 
0 0 0 0 0 0 0 0 0 0 0 0 0 0 0 0 
0 0 0 0 0 0 0 0 0 0 0 0 0 0 0 0 0 0 0 0 0 0 0 0 0 0 0 
0 0 0 0 0 0 0 0 0 0 0 0 0 0 0 0 
0 0 0 0 0 0 0 0 0 0 0 0 0 0 0 0 
0 0 0 0 0 0 0 0 0 0 0 0 0 0 0 0 
0 0 0 0 0 0 0 0 0 0 0 0 0 0 0 0 
0 0 0 0 0 0 0 0 0 0 0 0 0 0 0 0 
0 0 0 0 0 0 0 0 0 0 0 0 0 0 0 0 
0 0 0 0 0 0 0 0 0 0 0 0 0 0 0 0 0 0 0 0 0 0 0 0 0 0 0 
0 0 0 0 0 0 0 0 0 0 0 0 0 0 0 0 
0 0 0 0 0 0 0 0 0 0 0 0 0 0 0 0 
0 0 0 0 0 0 0 0 0 0 0 0 0 0 0 0 
0 0 0 0 0 0 0 0 0 0 0 0 0 0 0 0 
0 0 0 0 0 0 0 0 0 0 0 0 0 0 0 0 
0 0 0 0 0 0 0 0 0 0 0 0 0 0 0 0 
0 0 0 0 0 0 0 0 0 0 